<svg xmlns="http://www.w3.org/2000/svg" viewBox="0 0 76.77 39.37"><defs><style>.cls-1{fill:#99c661;}</style></defs><title>Asset 23</title><g id="Layer_2" data-name="Layer 2"><g id="Layer_1-2" data-name="Layer 1"><path class="cls-1" d="M62.31,0H2.1A2.1,2.1,0,0,0,0,2.1V37.27a2.1,2.1,0,0,0,2.1,2.1H74.67a2.1,2.1,0,0,0,2.1-2.1V2.1A2.1,2.1,0,0,0,74.67,0ZM74.67,37.27H2.1V2.1H74.67Z"/><path class="cls-1" d="M51.68,5.73h-7.1a9.59,9.59,0,0,0-.9-.47,12.21,12.21,0,0,0-10.59,0,9.59,9.59,0,0,0-.9.47H12.73A7.53,7.53,0,0,1,5.2,13.26V26.11a7.53,7.53,0,0,1,7.53,7.52H32.19c.3.17.59.33.9.48a12.19,12.19,0,0,0,10.59,0l.9-.48H64a7.53,7.53,0,0,1,7.53-7.52V13.26A7.53,7.53,0,0,1,64,5.73H51.68ZM25.09,31.54H14.6a9.66,9.66,0,0,0-7.3-7.3V15.13a9.66,9.66,0,0,0,7.3-7.3H29.43a16.58,16.58,0,0,0-4.78,11.85,16.61,16.61,0,0,0,4.78,11.86Zm18.14,1.62a11.2,11.2,0,0,1-9.69,0c-4.76-2.26-7.84-7.55-7.84-13.48S28.78,8.47,33.54,6.21a11.13,11.13,0,0,1,9.69,0c4.76,2.26,7.84,7.55,7.84,13.47S48,30.9,43.23,33.16Zm26.24-18v9.11a9.66,9.66,0,0,0-7.3,7.3H47.34a16.61,16.61,0,0,0,4.78-11.86A16.58,16.58,0,0,0,47.34,7.83H62.17A9.66,9.66,0,0,0,69.47,15.13Z"/><path class="cls-1" d="M42.33,19a10.28,10.28,0,0,0-2.65-1.5,8,8,0,0,1-2.06-1.08,1.07,1.07,0,0,1-.28-.34,1,1,0,0,1,.19-1,1.85,1.85,0,0,1,1.27-.38,5,5,0,0,1,1.62.26,4.41,4.41,0,0,1,1,.45l.62.35a.56.56,0,0,0,.44,0,.53.53,0,0,0,.31-.31l1.06-2.8a.52.52,0,0,0-.23-.64l-.44-.25a7.47,7.47,0,0,0-2.7-.94v-2a.52.52,0,0,0-.52-.53H37.16a.52.52,0,0,0-.52.53V11a5.67,5.67,0,0,0-2.45,1.5A5,5,0,0,0,32.85,16a4.79,4.79,0,0,0,.38,1.91A5.19,5.19,0,0,0,35,20a12.6,12.6,0,0,0,2.67,1.37,5.26,5.26,0,0,1,1.73,1,1.29,1.29,0,0,1,.3.43,1.31,1.31,0,0,1,.09.5,1.11,1.11,0,0,1-.41.9,2.27,2.27,0,0,1-1.44.43h0a5.57,5.57,0,0,1-3-.89l-.64-.43a.51.51,0,0,0-.45-.06.5.5,0,0,0-.33.32l-1,2.84a.52.52,0,0,0,.19.6l.37.27a6.76,6.76,0,0,0,2,.94,8.88,8.88,0,0,0,1.32.28v2.1a.53.53,0,0,0,.53.53h2.79a.52.52,0,0,0,.52-.53V28.26A5.7,5.7,0,0,0,43,26.56h0a5.2,5.2,0,0,0,1.29-3.45,5.49,5.49,0,0,0-.31-1.9A5.09,5.09,0,0,0,42.33,19Zm-.15,6.9a4.78,4.78,0,0,1-2.53,1.48.53.53,0,0,0-.4.51v2.2H37.51V28a.53.53,0,0,0-.48-.53,8,8,0,0,1-1.59-.3,5.67,5.67,0,0,1-1.73-.79l-.05,0,.66-1.83.08.05A6.64,6.64,0,0,0,38,25.66h0A3.26,3.26,0,0,0,40.08,25a2.14,2.14,0,0,0,.79-1.7,2.46,2.46,0,0,0-.17-.91,2.4,2.4,0,0,0-.52-.76,6.27,6.27,0,0,0-2.09-1.24,11.5,11.5,0,0,1-2.45-1.24,4.11,4.11,0,0,1-1.44-1.68A3.64,3.64,0,0,1,33.9,16,3.91,3.91,0,0,1,35,13.25a4.66,4.66,0,0,1,2.34-1.31.53.53,0,0,0,.4-.51V9.31H39.4v1.95a.53.53,0,0,0,.48.52,6.73,6.73,0,0,1,2.74.85l.06,0L42,14.47l-.08-.05a6.9,6.9,0,0,0-1.17-.53,6.29,6.29,0,0,0-2-.31,2.79,2.79,0,0,0-2,.68,2,2,0,0,0-.58,1.4,1.88,1.88,0,0,0,.17.84,2.33,2.33,0,0,0,.53.68,9.12,9.12,0,0,0,2.36,1.27,9,9,0,0,1,2.38,1.33A4.1,4.1,0,0,1,43,21.57a4.65,4.65,0,0,1,.24,1.54A4.16,4.16,0,0,1,42.18,25.87Z"/></g></g></svg>